 <svg width="200" height="300" viewBox="0 0 200 300" fill="none" xmlns="http://www.w3.org/2000/svg">
  <rect width="200" height="300" fill="#F3F4F6"/>
  <path d="M60 120h80v10H60v-10zm0 30h80v10H60v-10zm0 30h60v10H60v-10z" fill="#D1D5DB"/>
  <path d="M85 80c0-8.837 7.163-16 16-16s16 7.163 16 16-7.163 16-16 16-16-7.163-16-16z" fill="#D1D5DB"/>
  <path d="M100 200c-22.091 0-40-17.909-40-40s17.909-40 40-40 40 17.909 40 40-17.909 40-40 40zm0-70c-16.569 0-30 13.431-30 30s13.431 30 30 30 30-13.431 30-30-13.431-30-30-30z" fill="#9CA3AF"/>
</svg>